<mxfile host="app.diagrams.net" modified="2024-06-14T04:46:07.432Z" agent="Mozilla/5.0 (X11; Ubuntu; Linux x86_64; rv:123.0) Gecko/20100101 Firefox/123.0" etag="0Swhqq3A_MVWboGd04yk" version="24.5.3" type="github">
  <diagram id="C5RBs43oDa-KdzZeNtuy" name="Page-1">
    <mxGraphModel dx="2257" dy="1960" grid="1" gridSize="10" guides="1" tooltips="1" connect="1" arrows="1" fold="1" page="1" pageScale="1" pageWidth="827" pageHeight="1169" math="0" shadow="0">
      <root>
        <mxCell id="WIyWlLk6GJQsqaUBKTNV-0" />
        <mxCell id="WIyWlLk6GJQsqaUBKTNV-1" parent="WIyWlLk6GJQsqaUBKTNV-0" />
        <mxCell id="TUt2pirhL9gMtHY99sxS-2" value="" style="edgeStyle=orthogonalEdgeStyle;rounded=0;orthogonalLoop=1;jettySize=auto;html=1;" parent="WIyWlLk6GJQsqaUBKTNV-1" source="WIyWlLk6GJQsqaUBKTNV-3" target="WIyWlLk6GJQsqaUBKTNV-7" edge="1">
          <mxGeometry relative="1" as="geometry" />
        </mxCell>
        <mxCell id="WIyWlLk6GJQsqaUBKTNV-3" value="planning_simulator.launch.xml" style="rounded=1;whiteSpace=wrap;html=1;fontSize=12;glass=0;strokeWidth=1;shadow=0;" parent="WIyWlLk6GJQsqaUBKTNV-1" vertex="1">
          <mxGeometry x="-70" y="190" width="190" height="40" as="geometry" />
        </mxCell>
        <mxCell id="TUt2pirhL9gMtHY99sxS-17" style="edgeStyle=orthogonalEdgeStyle;rounded=0;orthogonalLoop=1;jettySize=auto;html=1;exitX=1;exitY=0.5;exitDx=0;exitDy=0;entryX=0;entryY=0.5;entryDx=0;entryDy=0;" parent="WIyWlLk6GJQsqaUBKTNV-1" source="WIyWlLk6GJQsqaUBKTNV-7" target="TUt2pirhL9gMtHY99sxS-9" edge="1">
          <mxGeometry relative="1" as="geometry" />
        </mxCell>
        <mxCell id="TUt2pirhL9gMtHY99sxS-18" style="edgeStyle=orthogonalEdgeStyle;rounded=0;orthogonalLoop=1;jettySize=auto;html=1;exitX=1;exitY=0.5;exitDx=0;exitDy=0;entryX=0;entryY=0.5;entryDx=0;entryDy=0;" parent="WIyWlLk6GJQsqaUBKTNV-1" source="WIyWlLk6GJQsqaUBKTNV-7" target="TUt2pirhL9gMtHY99sxS-10" edge="1">
          <mxGeometry relative="1" as="geometry" />
        </mxCell>
        <mxCell id="TUt2pirhL9gMtHY99sxS-19" style="edgeStyle=orthogonalEdgeStyle;rounded=0;orthogonalLoop=1;jettySize=auto;html=1;exitX=1;exitY=0.5;exitDx=0;exitDy=0;entryX=0;entryY=0.5;entryDx=0;entryDy=0;" parent="WIyWlLk6GJQsqaUBKTNV-1" source="WIyWlLk6GJQsqaUBKTNV-7" target="TUt2pirhL9gMtHY99sxS-11" edge="1">
          <mxGeometry relative="1" as="geometry" />
        </mxCell>
        <mxCell id="TUt2pirhL9gMtHY99sxS-20" style="edgeStyle=orthogonalEdgeStyle;rounded=0;orthogonalLoop=1;jettySize=auto;html=1;exitX=1;exitY=0.5;exitDx=0;exitDy=0;entryX=0;entryY=0.5;entryDx=0;entryDy=0;" parent="WIyWlLk6GJQsqaUBKTNV-1" source="WIyWlLk6GJQsqaUBKTNV-7" target="TUt2pirhL9gMtHY99sxS-12" edge="1">
          <mxGeometry relative="1" as="geometry" />
        </mxCell>
        <mxCell id="TUt2pirhL9gMtHY99sxS-21" style="edgeStyle=orthogonalEdgeStyle;rounded=0;orthogonalLoop=1;jettySize=auto;html=1;exitX=1;exitY=0.5;exitDx=0;exitDy=0;entryX=0;entryY=0.5;entryDx=0;entryDy=0;" parent="WIyWlLk6GJQsqaUBKTNV-1" source="WIyWlLk6GJQsqaUBKTNV-7" target="TUt2pirhL9gMtHY99sxS-13" edge="1">
          <mxGeometry relative="1" as="geometry" />
        </mxCell>
        <mxCell id="TUt2pirhL9gMtHY99sxS-22" style="edgeStyle=orthogonalEdgeStyle;rounded=0;orthogonalLoop=1;jettySize=auto;html=1;exitX=1;exitY=0.5;exitDx=0;exitDy=0;entryX=0;entryY=0.5;entryDx=0;entryDy=0;" parent="WIyWlLk6GJQsqaUBKTNV-1" source="WIyWlLk6GJQsqaUBKTNV-7" target="TUt2pirhL9gMtHY99sxS-4" edge="1">
          <mxGeometry relative="1" as="geometry" />
        </mxCell>
        <mxCell id="TUt2pirhL9gMtHY99sxS-23" style="edgeStyle=orthogonalEdgeStyle;rounded=0;orthogonalLoop=1;jettySize=auto;html=1;exitX=1;exitY=0.5;exitDx=0;exitDy=0;entryX=0;entryY=0.5;entryDx=0;entryDy=0;" parent="WIyWlLk6GJQsqaUBKTNV-1" source="WIyWlLk6GJQsqaUBKTNV-7" target="TUt2pirhL9gMtHY99sxS-8" edge="1">
          <mxGeometry relative="1" as="geometry" />
        </mxCell>
        <mxCell id="TUt2pirhL9gMtHY99sxS-24" style="edgeStyle=orthogonalEdgeStyle;rounded=0;orthogonalLoop=1;jettySize=auto;html=1;exitX=1;exitY=0.5;exitDx=0;exitDy=0;entryX=0;entryY=0.5;entryDx=0;entryDy=0;" parent="WIyWlLk6GJQsqaUBKTNV-1" source="WIyWlLk6GJQsqaUBKTNV-7" target="TUt2pirhL9gMtHY99sxS-0" edge="1">
          <mxGeometry relative="1" as="geometry" />
        </mxCell>
        <mxCell id="TUt2pirhL9gMtHY99sxS-26" style="edgeStyle=orthogonalEdgeStyle;rounded=0;orthogonalLoop=1;jettySize=auto;html=1;exitX=1;exitY=0.5;exitDx=0;exitDy=0;entryX=0;entryY=0.5;entryDx=0;entryDy=0;" parent="WIyWlLk6GJQsqaUBKTNV-1" source="WIyWlLk6GJQsqaUBKTNV-7" target="TUt2pirhL9gMtHY99sxS-25" edge="1">
          <mxGeometry relative="1" as="geometry" />
        </mxCell>
        <mxCell id="WIyWlLk6GJQsqaUBKTNV-7" value="autoware.launch.xml" style="rounded=1;whiteSpace=wrap;html=1;fontSize=12;glass=0;strokeWidth=1;shadow=0;" parent="WIyWlLk6GJQsqaUBKTNV-1" vertex="1">
          <mxGeometry x="150" y="190" width="120" height="40" as="geometry" />
        </mxCell>
        <mxCell id="TUt2pirhL9gMtHY99sxS-0" value="global_params.launch.py" style="rounded=1;whiteSpace=wrap;html=1;fontSize=12;glass=0;strokeWidth=1;shadow=0;" parent="WIyWlLk6GJQsqaUBKTNV-1" vertex="1">
          <mxGeometry x="319" y="-250" width="190" height="40" as="geometry" />
        </mxCell>
        <mxCell id="TUt2pirhL9gMtHY99sxS-4" value="pointcloud_container.launch.py" style="rounded=1;whiteSpace=wrap;html=1;fontSize=12;glass=0;strokeWidth=1;shadow=0;" parent="WIyWlLk6GJQsqaUBKTNV-1" vertex="1">
          <mxGeometry x="319" y="-140" width="190" height="40" as="geometry" />
        </mxCell>
        <mxCell id="TUt2pirhL9gMtHY99sxS-6" value="vehicle.launch.xml" style="rounded=1;whiteSpace=wrap;html=1;fontSize=12;glass=0;strokeWidth=1;shadow=0;" parent="WIyWlLk6GJQsqaUBKTNV-1" vertex="1">
          <mxGeometry x="319" y="-30" width="190" height="40" as="geometry" />
        </mxCell>
        <mxCell id="TUt2pirhL9gMtHY99sxS-7" value="system.launch.xml" style="rounded=1;whiteSpace=wrap;html=1;fontSize=12;glass=0;strokeWidth=1;shadow=0;" parent="WIyWlLk6GJQsqaUBKTNV-1" vertex="1">
          <mxGeometry x="319" y="80" width="190" height="40" as="geometry" />
        </mxCell>
        <mxCell id="TUt2pirhL9gMtHY99sxS-8" value="map.launch.py" style="rounded=1;whiteSpace=wrap;html=1;fontSize=12;glass=0;strokeWidth=1;shadow=0;" parent="WIyWlLk6GJQsqaUBKTNV-1" vertex="1">
          <mxGeometry x="319" y="240" width="190" height="40" as="geometry" />
        </mxCell>
        <mxCell id="TUt2pirhL9gMtHY99sxS-9" value="sensing.launch.xml" style="rounded=1;whiteSpace=wrap;html=1;fontSize=12;glass=0;strokeWidth=1;shadow=0;" parent="WIyWlLk6GJQsqaUBKTNV-1" vertex="1">
          <mxGeometry x="319" y="290" width="190" height="40" as="geometry" />
        </mxCell>
        <mxCell id="TUt2pirhL9gMtHY99sxS-10" value="localization.launch.xml" style="rounded=1;whiteSpace=wrap;html=1;fontSize=12;glass=0;strokeWidth=1;shadow=0;" parent="WIyWlLk6GJQsqaUBKTNV-1" vertex="1">
          <mxGeometry x="319" y="340" width="190" height="40" as="geometry" />
        </mxCell>
        <mxCell id="TUt2pirhL9gMtHY99sxS-11" value="perception.launch.xml" style="rounded=1;whiteSpace=wrap;html=1;fontSize=12;glass=0;strokeWidth=1;shadow=0;" parent="WIyWlLk6GJQsqaUBKTNV-1" vertex="1">
          <mxGeometry x="319" y="390" width="190" height="40" as="geometry" />
        </mxCell>
        <mxCell id="TUt2pirhL9gMtHY99sxS-12" value="planning.launch.xml" style="rounded=1;whiteSpace=wrap;html=1;fontSize=12;glass=0;strokeWidth=1;shadow=0;" parent="WIyWlLk6GJQsqaUBKTNV-1" vertex="1">
          <mxGeometry x="319" y="440" width="190" height="40" as="geometry" />
        </mxCell>
        <mxCell id="TUt2pirhL9gMtHY99sxS-13" value="control.launch.py" style="rounded=1;whiteSpace=wrap;html=1;fontSize=12;glass=0;strokeWidth=1;shadow=0;" parent="WIyWlLk6GJQsqaUBKTNV-1" vertex="1">
          <mxGeometry x="319" y="490" width="190" height="40" as="geometry" />
        </mxCell>
        <mxCell id="TUt2pirhL9gMtHY99sxS-15" style="edgeStyle=orthogonalEdgeStyle;rounded=0;orthogonalLoop=1;jettySize=auto;html=1;exitX=1;exitY=0.5;exitDx=0;exitDy=0;entryX=-0.001;entryY=0.588;entryDx=0;entryDy=0;entryPerimeter=0;" parent="WIyWlLk6GJQsqaUBKTNV-1" source="WIyWlLk6GJQsqaUBKTNV-7" target="TUt2pirhL9gMtHY99sxS-6" edge="1">
          <mxGeometry relative="1" as="geometry" />
        </mxCell>
        <mxCell id="TUt2pirhL9gMtHY99sxS-16" style="edgeStyle=orthogonalEdgeStyle;rounded=0;orthogonalLoop=1;jettySize=auto;html=1;exitX=1;exitY=0.5;exitDx=0;exitDy=0;entryX=-0.004;entryY=0.588;entryDx=0;entryDy=0;entryPerimeter=0;" parent="WIyWlLk6GJQsqaUBKTNV-1" source="WIyWlLk6GJQsqaUBKTNV-7" target="TUt2pirhL9gMtHY99sxS-7" edge="1">
          <mxGeometry relative="1" as="geometry" />
        </mxCell>
        <mxCell id="TUt2pirhL9gMtHY99sxS-25" value="autoware_api.launch.xml" style="rounded=1;whiteSpace=wrap;html=1;fontSize=12;glass=0;strokeWidth=1;shadow=0;" parent="WIyWlLk6GJQsqaUBKTNV-1" vertex="1">
          <mxGeometry x="319" y="540" width="190" height="40" as="geometry" />
        </mxCell>
        <mxCell id="aVVuM_nYEZaegkw_f5pE-0" value="&lt;div&gt;自动调用generate_launch_description()&lt;/div&gt;&lt;div&gt;进入launch_setup()&lt;/div&gt;&lt;div&gt;找到车辆模型信息&lt;br&gt;&lt;/div&gt;&lt;div&gt;配置和加载车辆信息&lt;/div&gt;" style="rounded=0;whiteSpace=wrap;html=1;" vertex="1" parent="WIyWlLk6GJQsqaUBKTNV-1">
          <mxGeometry x="530" y="-270" width="250" height="80" as="geometry" />
        </mxCell>
        <mxCell id="aVVuM_nYEZaegkw_f5pE-1" value="vehicle_info.launch.py" style="rounded=1;whiteSpace=wrap;html=1;fontSize=12;glass=0;strokeWidth=1;shadow=0;" vertex="1" parent="WIyWlLk6GJQsqaUBKTNV-1">
          <mxGeometry x="800" y="-250" width="190" height="40" as="geometry" />
        </mxCell>
        <mxCell id="aVVuM_nYEZaegkw_f5pE-2" value="&lt;div&gt;获取车辆配置文件的路径&lt;/div&gt;&lt;div&gt;打开和解析 vehicle_info.param.yaml文件&lt;/div&gt;&lt;div&gt;从中提取配置的 ROS 参数&lt;/div&gt;&lt;div&gt;设置从 YAML 文件中加载的参数。&lt;/div&gt;" style="rounded=0;whiteSpace=wrap;html=1;" vertex="1" parent="WIyWlLk6GJQsqaUBKTNV-1">
          <mxGeometry x="1010" y="-270" width="330" height="80" as="geometry" />
        </mxCell>
        <mxCell id="aVVuM_nYEZaegkw_f5pE-3" value="wheel_radius: 0.383 # The radius of the wheel, primarily used for dead reckoning.&lt;br&gt;&amp;nbsp;&amp;nbsp;&amp;nbsp; wheel_width: 0.235 # The lateral width of a wheel tire, primarily used for dead reckoning.&lt;br&gt;&amp;nbsp;&amp;nbsp;&amp;nbsp; wheel_base: 2.79 # between front wheel center and rear wheel center&lt;br&gt;&amp;nbsp;&amp;nbsp;&amp;nbsp; wheel_tread: 1.64 # between left wheel center and right wheel center&lt;br&gt;&amp;nbsp;&amp;nbsp;&amp;nbsp; front_overhang: 1.0 # between front wheel center and vehicle front&lt;br&gt;&amp;nbsp;&amp;nbsp;&amp;nbsp; rear_overhang: 1.1 # between rear wheel center and vehicle rear&lt;br&gt;&amp;nbsp;&amp;nbsp;&amp;nbsp; left_overhang: 0.128 # between left wheel center and vehicle left&lt;br&gt;&amp;nbsp;&amp;nbsp;&amp;nbsp; right_overhang: 0.128 # between right wheel center and vehicle right&lt;br&gt;&amp;nbsp;&amp;nbsp;&amp;nbsp; vehicle_height: 2.5&lt;br&gt;&amp;nbsp;&amp;nbsp;&amp;nbsp; max_steer_angle: 0.70 # [rad]" style="rounded=0;whiteSpace=wrap;html=1;" vertex="1" parent="WIyWlLk6GJQsqaUBKTNV-1">
          <mxGeometry x="1360" y="-320" width="540" height="160" as="geometry" />
        </mxCell>
        <mxCell id="aVVuM_nYEZaegkw_f5pE-5" value="声明是否使用&lt;b&gt;多线程&lt;/b&gt;和&lt;b&gt;容器名称&lt;/b&gt;" style="rounded=0;whiteSpace=wrap;html=1;" vertex="1" parent="WIyWlLk6GJQsqaUBKTNV-1">
          <mxGeometry x="530" y="-160" width="250" height="80" as="geometry" />
        </mxCell>
        <mxCell id="aVVuM_nYEZaegkw_f5pE-7" value="&lt;div&gt;&lt;code&gt;加载vehicle.xacro配置文件&lt;/code&gt;&lt;/div&gt;&lt;div&gt;&lt;code&gt;launch_vehicle_interface&lt;/code&gt; 为真，则包含启动文件 &lt;code&gt;vehicle_interface.launch.xml&lt;/code&gt;&lt;/div&gt;" style="rounded=0;whiteSpace=wrap;html=1;" vertex="1" parent="WIyWlLk6GJQsqaUBKTNV-1">
          <mxGeometry x="530" y="-50" width="250" height="90" as="geometry" />
        </mxCell>
        <mxCell id="aVVuM_nYEZaegkw_f5pE-8" value="&lt;code&gt;vehicle.xacro&lt;/code&gt;" style="rounded=1;whiteSpace=wrap;html=1;fontSize=12;glass=0;strokeWidth=1;shadow=0;" vertex="1" parent="WIyWlLk6GJQsqaUBKTNV-1">
          <mxGeometry x="800" y="-30" width="190" height="40" as="geometry" />
        </mxCell>
        <mxCell id="aVVuM_nYEZaegkw_f5pE-9" value="&lt;div&gt;调用vehicle_info.param.yaml&lt;/div&gt;&lt;div&gt;调用车辆模型lexus.dae&lt;/div&gt;&lt;div&gt;xyzrpy控制位置角度，其中scale控制大小&lt;br&gt;&lt;/div&gt;" style="rounded=0;whiteSpace=wrap;html=1;" vertex="1" parent="WIyWlLk6GJQsqaUBKTNV-1">
          <mxGeometry x="1010" y="-50" width="250" height="90" as="geometry" />
        </mxCell>
        <mxCell id="aVVuM_nYEZaegkw_f5pE-13" value="" style="edgeStyle=orthogonalEdgeStyle;rounded=0;orthogonalLoop=1;jettySize=auto;html=1;" edge="1" parent="WIyWlLk6GJQsqaUBKTNV-1" source="aVVuM_nYEZaegkw_f5pE-10" target="aVVuM_nYEZaegkw_f5pE-11">
          <mxGeometry relative="1" as="geometry" />
        </mxCell>
        <mxCell id="aVVuM_nYEZaegkw_f5pE-10" value="配置和启动多个与车辆系统监控和控制相关的 ROS 节点" style="rounded=0;whiteSpace=wrap;html=1;" vertex="1" parent="WIyWlLk6GJQsqaUBKTNV-1">
          <mxGeometry x="530" y="70" width="250" height="60" as="geometry" />
        </mxCell>
        <mxCell id="aVVuM_nYEZaegkw_f5pE-11" value="system_monitor.launch.py" style="rounded=1;whiteSpace=wrap;html=1;fontSize=12;glass=0;strokeWidth=1;shadow=0;" vertex="1" parent="WIyWlLk6GJQsqaUBKTNV-1">
          <mxGeometry x="800" y="80" width="210" height="40" as="geometry" />
        </mxCell>
        <mxCell id="aVVuM_nYEZaegkw_f5pE-12" value="调用cpu、硬盘、内存等监控yaml" style="rounded=0;whiteSpace=wrap;html=1;" vertex="1" parent="WIyWlLk6GJQsqaUBKTNV-1">
          <mxGeometry x="1040" y="70" width="250" height="60" as="geometry" />
        </mxCell>
        <mxCell id="aVVuM_nYEZaegkw_f5pE-14" value="component_state_monitor.launch.py" style="rounded=1;whiteSpace=wrap;html=1;fontSize=12;glass=0;strokeWidth=1;shadow=0;" vertex="1" parent="WIyWlLk6GJQsqaUBKTNV-1">
          <mxGeometry x="800" y="140" width="210" height="40" as="geometry" />
        </mxCell>
      </root>
    </mxGraphModel>
  </diagram>
</mxfile>
